<?xml version="1.0" encoding="UTF-8" standalone="no"?>
<svg width="756px" height="928px" viewBox="0 0 756 928" version="1.1" xmlns="http://www.w3.org/2000/svg" xmlns:xlink="http://www.w3.org/1999/xlink" xmlns:sketch="http://www.bohemiancoding.com/sketch/ns">
    <!-- Generator: Sketch 3.2.2 (9983) - http://www.bohemiancoding.com/sketch -->
    <title>apple_logo</title>
    <desc>Created with Sketch.</desc>
    <defs></defs>
    <g id="Page-1" stroke="none" stroke-width="1" fill="none" fill-rule="evenodd" sketch:type="MSPage">
        <g id="apple_logo" sketch:type="MSLayerGroup" transform="translate(-1.000000, 0.000000)" fill="#424A50">
            <path d="M563.5,0 C516.8,1.9 460.3,31.1 426.8,70.3 C396.8,105 370.5,160.6 377.6,213.8 C429.7,217.8 482.8,187.3 515.2,148.1 C547.6,109 569.5,54.4 563.5,0 L563.5,0 Z M545.7,223.7 C479.8,224.6 418.7,267 384.9,267 C348.3,267 291.7,225.5 231.8,226.7 C153,227.8 80.4,272.4 39.8,343 C-42,484.9 19,695.3 98.6,810.5 C137.6,866.8 184.1,930.3 245.1,927.9 C303.9,925.6 326.1,889.9 397.1,889.9 C468.1,889.9 488.1,927.9 550.3,926.8 C613.5,925.6 653.7,869.2 692.4,812.7 C737.1,747.3 755.6,684 756.6,680.7 C755.2,680.1 633.3,633.4 632,493 C631,375.6 728,319.2 732.3,316.5 C677.7,236.7 592.8,225.7 562.5,224.4 C556.9,223.9 551.3,223.6 545.7,223.7 L545.7,223.7 L545.7,223.7 Z" id="path188" sketch:type="MSShapeGroup"></path>
        </g>
    </g>
</svg>